<svg width="20" height="20" viewBox="0 0 20 20" fill="none" xmlns="http://www.w3.org/2000/svg">
<path d="M15.833 3.33398H4.16634C3.7061 3.33398 3.33301 3.70708 3.33301 4.16732V15.834C3.33301 16.2942 3.7061 16.6673 4.16634 16.6673H15.833C16.2932 16.6673 16.6663 16.2942 16.6663 15.834V4.16732C16.6663 3.70708 16.2932 3.33398 15.833 3.33398Z" fill="#FF9A62" stroke="#FF9A62" stroke-width="2" stroke-linecap="round" stroke-linejoin="round"/>
<path d="M13.333 13.334H13.335V13.336H13.333V13.334Z" stroke="white" stroke-width="2" stroke-linecap="round" stroke-linejoin="round"/>
<path d="M10 13.334H10.002V13.336H10V13.334Z" stroke="white" stroke-width="2" stroke-linecap="round" stroke-linejoin="round"/>
<path d="M6.66699 13.334H6.66899V13.336H6.66699V13.334Z" stroke="white" stroke-width="2" stroke-linecap="round" stroke-linejoin="round"/>
<path d="M13.333 10H13.335V10.002H13.333V10Z" stroke="white" stroke-width="2" stroke-linecap="round" stroke-linejoin="round"/>
<path d="M10 10H10.002V10.002H10V10Z" stroke="white" stroke-width="2" stroke-linecap="round" stroke-linejoin="round"/>
<path d="M6.66699 10H6.66899V10.002H6.66699V10Z" stroke="white" stroke-width="2" stroke-linecap="round" stroke-linejoin="round"/>
<path d="M4.16699 5.83398H15.8337" stroke="#F1F3F6" stroke-linecap="round" stroke-linejoin="round"/>
<path d="M13.333 1.66602V3.33268" stroke="#FF9A62" stroke-width="2" stroke-linecap="round" stroke-linejoin="round"/>
<path d="M6.66699 1.66602V3.33268" stroke="#FF9A62" stroke-width="2" stroke-linecap="round" stroke-linejoin="round"/>
</svg>
