<svg width="11" height="7" viewBox="0 0 11 7" fill="none" xmlns="http://www.w3.org/2000/svg">
<path d="M10.9998 0.823329C11.0034 0.662835 10.9563 0.505228 10.8649 0.372421C10.7735 0.239613 10.6425 0.138204 10.4901 0.082292C10.3376 0.0263803 10.1713 0.0187442 10.0143 0.0604451C9.85728 0.102146 9.71737 0.191112 9.61392 0.314974L5.51265 5.04101L1.41282 0.314973C1.34903 0.229292 1.26805 0.157536 1.17486 0.104198C1.08168 0.0508611 0.978314 0.0170921 0.871299 0.00500556C0.764283 -0.00708097 0.655914 0.0027757 0.552936 0.0339582C0.449957 0.0651407 0.354579 0.116977 0.272834 0.186221C0.191089 0.255466 0.12478 0.340627 0.077918 0.43637C0.0310564 0.532114 0.00473592 0.636379 0.000582663 0.742634C-0.00357059 0.848889 0.0144844 0.954846 0.0537338 1.05387C0.0929832 1.15289 0.152519 1.24285 0.228617 1.31811L4.91825 6.72899C4.9917 6.81396 5.08287 6.8822 5.18562 6.92898C5.28838 6.97577 5.40022 7 5.51337 7C5.62653 7 5.73837 6.97577 5.84112 6.92898C5.94387 6.8822 6.03513 6.81396 6.10859 6.72899L10.8027 1.31811C10.9257 1.18142 10.9955 1.0061 10.9998 0.823329Z" fill="#333333"/>
</svg>
