<svg width="24" height="24" viewBox="0 0 24 24" fill="none" xmlns="http://www.w3.org/2000/svg">
<path d="M20.9549 2.9025C20.4899 2.6775 19.9574 2.745 19.5524 3.06L18.3674 4.0125L16.5149 2.5425C16.0424 2.1675 15.3824 2.1525 14.9024 2.5125L12.9599 3.9375L11.0774 2.52C10.5974 2.16 9.93742 2.16 9.46492 2.52L7.68742 3.885L6.86992 3.165C6.47242 2.82 5.92492 2.745 5.44492 2.955C4.96492 3.18 4.66492 3.6375 4.66492 4.1625V17.385H2.98492C2.59492 17.385 2.29492 17.7 2.29492 18.075C2.29492 20.085 3.92992 21.72 5.93242 21.72L17.9774 21.75H17.9849C18.0374 21.75 18.0974 21.7425 18.1499 21.7275C20.1224 21.6825 21.7049 20.0625 21.7049 18.0825V4.095C21.7049 3.585 21.4199 3.12 20.9549 2.9025ZM5.93242 20.34C4.93492 20.34 4.07992 19.68 3.77992 18.7725H14.4749C14.5949 19.365 14.8499 19.905 15.2099 20.355L5.93242 20.34ZM17.8424 14.895H8.94367C8.55367 14.895 8.25367 14.58 8.25367 14.205C8.25367 13.815 8.56117 13.515 8.94367 13.515H17.8424C18.2249 13.515 18.5324 13.8225 18.5324 14.205C18.5324 14.5875 18.2174 14.895 17.8424 14.895ZM17.8424 11.865H8.94367C8.55367 11.865 8.25367 11.55 8.25367 11.175C8.25367 10.785 8.56117 10.485 8.94367 10.485H17.8424C18.2249 10.485 18.5324 10.7925 18.5324 11.175C18.5324 11.5575 18.2174 11.865 17.8424 11.865ZM17.8424 8.8275H8.92492C8.54242 8.8275 8.23492 8.52 8.23492 8.1375C8.23492 7.755 8.54992 7.4475 8.92492 7.4475H17.8349C18.2174 7.4475 18.5249 7.7625 18.5249 8.1375C18.5324 8.5275 18.2174 8.8275 17.8424 8.8275Z" fill="white"/>
</svg>
