<svg width="24" height="24" viewBox="0 0 24 24" fill="none" xmlns="http://www.w3.org/2000/svg">
<path d="M3.17186 14.5936H2.58593C2.26234 14.5936 2 14.3313 2 14.0077V6.58593C2 6.26234 2.26234 6 2.58593 6H3.17186C3.49545 6 3.75779 6.26234 3.75779 6.58593V14.0077C3.75779 14.3313 3.49545 14.5936 3.17186 14.5936Z" fill="white"/>
<path d="M21.414 14.5936H20.8281C20.5045 14.5936 20.2422 14.3313 20.2422 14.0077V6.58593C20.2422 6.26234 20.5045 6 20.8281 6H21.414C21.7376 6 22 6.26234 22 6.58593V14.0077C22 14.3313 21.7376 14.5936 21.414 14.5936Z" fill="white"/>
<path d="M16.2594 13.4476L13.5226 10.3957C13.2831 10.1286 12.8924 10.059 12.5754 10.2268L10.0154 11.5821C9.63901 11.7813 9.21569 11.8867 8.79128 11.8867C7.83188 11.8867 6.95052 11.3637 6.49115 10.5219C5.80464 9.26388 6.26537 7.67413 7.51821 6.97812L7.87262 6.78125H7.87258H4.92969V13.539L9.77369 17.1719C10.2889 17.5583 10.9086 17.7572 11.5331 17.7572C11.8593 17.7572 12.1867 17.7019 12.5013 17.5916L15.2624 16.3937L16.0094 15.9422C16.3628 15.7286 16.6123 15.3775 16.6951 14.9729C16.6953 14.9718 16.6955 14.9708 16.6957 14.9697C16.8068 14.4222 16.6436 13.8532 16.2594 13.4476Z" fill="white"/>
<path d="M10.4385 6.78125C10.3389 6.78125 10.241 6.80664 10.1539 6.855L8.08832 8.00256C7.39345 8.38861 7.14005 9.2629 7.52083 9.9607C7.90024 10.656 8.76812 10.917 9.46815 10.5464L11.7583 9.33403C12.7094 8.83048 13.8813 9.03943 14.5998 9.84067L17.1235 12.655C17.4844 13.0407 17.7273 13.5129 17.8366 14.016C18.2669 13.8982 18.6812 13.7246 19.0712 13.4993V6.78125H10.4385Z" fill="white"/>
</svg>
