<svg width="21" height="20" viewBox="0 0 21 20" fill="none" xmlns="http://www.w3.org/2000/svg">
<path d="M15.75 6.25C17.4069 6.25 18.75 4.90685 18.75 3.25C18.75 1.59315 17.4069 0.25 15.75 0.25C14.0931 0.25 12.75 1.59315 12.75 3.25C12.75 4.90685 14.0931 6.25 15.75 6.25Z" fill="white"/>
<path d="M6 7.75C5.99946 7.49846 6.02205 7.2474 6.0675 7H3.75C2.75544 7 1.80161 7.39509 1.09835 8.09835C0.395088 8.80161 0 9.75544 0 10.75V14.5C0 14.6989 0.0790176 14.8897 0.21967 15.0303C0.360322 15.171 0.551088 15.25 0.75 15.25H3.75C3.75082 14.2292 4.04922 13.2308 4.60869 12.3769C5.16815 11.5231 5.96441 10.8508 6.9 10.4425C6.31734 9.66562 6.00162 8.7211 6 7.75Z" fill="white"/>
<path d="M17.2516 7H14.9341C14.9795 7.2474 15.0021 7.49846 15.0016 7.75C14.9999 8.7211 14.6842 9.66562 14.1016 10.4425C15.0372 10.8508 15.8334 11.5231 16.3929 12.3769C16.9523 13.2308 17.2507 14.2292 17.2516 15.25H20.2516C20.4505 15.25 20.6412 15.171 20.7819 15.0303C20.9225 14.8897 21.0016 14.6989 21.0016 14.5V10.75C21.0016 9.75544 20.6065 8.80161 19.9032 8.09835C19.2 7.39509 18.2461 7 17.2516 7Z" fill="white"/>
<path d="M5.25 6.25C6.90685 6.25 8.25 4.90685 8.25 3.25C8.25 1.59315 6.90685 0.25 5.25 0.25C3.59315 0.25 2.25 1.59315 2.25 3.25C2.25 4.90685 3.59315 6.25 5.25 6.25Z" fill="white"/>
<path d="M10.5 10.75C12.1569 10.75 13.5 9.40685 13.5 7.75C13.5 6.09315 12.1569 4.75 10.5 4.75C8.84315 4.75 7.5 6.09315 7.5 7.75C7.5 9.40685 8.84315 10.75 10.5 10.75Z" fill="white"/>
<path d="M12 11.5H9C8.00544 11.5 7.05161 11.8951 6.34835 12.5983C5.64509 13.3016 5.25 14.2554 5.25 15.25V19C5.25 19.1989 5.32902 19.3897 5.46967 19.5303C5.61032 19.671 5.80109 19.75 6 19.75H15C15.1989 19.75 15.3897 19.671 15.5303 19.5303C15.671 19.3897 15.75 19.1989 15.75 19V15.25C15.75 14.7575 15.653 14.2699 15.4645 13.8149C15.2761 13.36 14.9999 12.9466 14.6517 12.5983C14.3034 12.2501 13.89 11.9739 13.4351 11.7855C12.9801 11.597 12.4925 11.5 12 11.5Z" fill="white"/>
</svg>
