<svg width="10" height="7" viewBox="0 0 10 7" fill="none" xmlns="http://www.w3.org/2000/svg">
<path d="M9.51296 1.54715C9.81514 1.26386 9.83045 0.789228 9.54715 0.487044C9.26386 0.18486 8.78923 0.169549 8.48704 0.452847L9.51296 1.54715ZM3.66667 6L3.15371 6.54715C3.4422 6.81762 3.89113 6.81762 4.17962 6.54715L3.66667 6ZM1.51296 2.95285C1.21077 2.66955 0.736145 2.68486 0.452847 2.98704C0.169549 3.28923 0.18486 3.76386 0.487044 4.04715L1.51296 2.95285ZM8.48704 0.452847L3.15371 5.45285L4.17962 6.54715L9.51296 1.54715L8.48704 0.452847ZM4.17962 5.45285L1.51296 2.95285L0.487044 4.04715L3.15371 6.54715L4.17962 5.45285Z" fill="white"/>
</svg>
