<svg xmlns="http://www.w3.org/2000/svg" width="12" height="7"><rect id="backgroundrect" width="100%" height="100%" x="0" y="0" fill="none" stroke="none"/>
    
<g class="currentLayer" style=""><title>Layer 1</title><path fill="#2A356D" fill-rule="evenodd" d="M5.979 7a.824.824 0 0 1-.592-.252L.245 1.468a.876.876 0 0 1 0-1.216.822.822 0 0 1 1.184 0l4.55 4.672L10.528.252a.822.822 0 0 1 1.184 0 .876.876 0 0 1 0 1.216L6.57 6.748A.824.824 0 0 1 5.979 7z" id="svg_1" class="" transform="rotate(-180 5.9785003662109375,3.500140428543091) "/></g></svg>