<svg width="16" height="16" viewBox="0 0 16 16" fill="none" xmlns="http://www.w3.org/2000/svg">
<path d="M8 16C12.4216 16 16 12.422 16 8C16 3.57847 12.422 3.12799e-07 8 6.99382e-07C3.5784 1.08593e-06 -1.08597e-06 3.578 -6.99382e-07 8C-3.1284e-07 12.4215 3.578 16 8 16ZM7.17847 4.82434C7.17847 4.57159 7.54703 4.31891 7.99984 4.31891C8.47372 4.31891 8.81066 4.57159 8.81066 4.82434L8.81066 8.83644C8.81066 9.13128 8.47369 9.33141 7.99984 9.33141C7.54703 9.33141 7.17847 9.13128 7.17847 8.83644L7.17847 4.82434ZM7.99981 10.3001C8.48422 10.3001 8.86328 10.6582 8.86328 11.0583C8.86328 11.4585 8.48419 11.806 7.99981 11.806C7.52594 11.806 7.14681 11.4585 7.14681 11.0583C7.14681 10.6582 7.52597 10.3001 7.99981 10.3001Z" fill="#EF7A69"/>
</svg>
