<svg width="18" height="18" viewBox="0 0 18 18" fill="none" xmlns="http://www.w3.org/2000/svg">
<g clip-path="url(#clip0_303_28841)">
<path d="M2.03699 11.4111C0.913781 11.4111 0 12.3307 0 13.461C0 13.8188 0.0935156 14.1715 0.270387 14.481C0.278684 14.4955 0.286348 14.5103 0.293379 14.5254L1.75342 17.138C1.84117 17.295 2.06413 17.2999 2.15859 17.1468L3.72642 14.6065C3.76358 14.5466 3.77838 14.523 3.78612 14.5106C3.79051 14.5036 3.79139 14.5022 3.79526 14.4958C3.79733 14.4919 3.79948 14.4881 3.80166 14.4843C3.97979 14.174 4.07394 13.8202 4.07394 13.4611C4.07394 12.3307 3.16016 11.4111 2.03699 11.4111ZM2.03699 14.2857C1.58414 14.2857 1.21704 13.9163 1.21704 13.4605C1.21704 13.0048 1.58414 12.6354 2.03699 12.6354C2.48984 12.6354 2.85694 13.0048 2.85694 13.4606C2.85694 13.9163 2.48984 14.2857 2.03699 14.2857Z" fill="white"/>
<path d="M15.8503 7.8587C15.8459 7.8587 15.8416 7.85867 15.8372 7.85856C15.626 7.85396 15.4329 7.73741 15.3293 7.5521L13.1568 3.6646C13.1497 3.65198 13.1432 3.63918 13.137 3.62617C12.8718 3.1451 12.7319 2.60126 12.7319 2.04994C12.7319 1.78339 12.7646 1.52446 12.825 1.27637C12.3713 1.09992 11.8583 0.934437 11.3346 0.801758C11.3736 1.76384 11.1166 2.69924 10.5861 3.51751C10.0535 4.339 9.27185 5.00595 8.32573 5.44628C8.14267 5.5315 7.95757 5.60491 7.77856 5.67589C7.35271 5.84474 6.95049 6.00421 6.70038 6.27716C6.56078 6.42953 6.44821 6.64082 6.32903 6.86452C6.20588 7.0956 6.06634 7.35751 5.87277 7.59545C5.46148 8.10107 4.82863 8.46202 4.09084 8.61178C3.35396 8.7613 2.72379 8.77023 2.16424 8.63917C1.46938 8.47626 1.24708 8.57814 1.05098 8.66782C0.962985 8.70811 0.863246 8.75378 0.741078 8.78176C0.726735 8.78503 0.652695 8.79864 0.557563 8.81551C0.550566 8.95937 0.546875 9.10408 0.546875 9.24966C0.546875 9.59781 0.590047 10.0876 0.645242 10.5268C1.06729 10.3231 1.53969 10.2088 2.03817 10.2088C3.82045 10.2088 5.27044 11.668 5.27044 13.4616C5.27044 14.0226 5.12563 14.5756 4.85134 15.0629C4.84554 15.0742 4.83932 15.0853 4.83274 15.0963L4.82399 15.1109C4.80947 15.1352 4.80947 15.1352 4.79836 15.1529C4.79101 15.1646 4.77702 15.1869 4.74235 15.2428L4.09358 16.2939C4.42985 16.5368 4.71191 16.7193 5.08569 16.9176C5.3996 16.6856 5.18107 16.8465 5.3996 16.6856C6.03182 16.2199 6.7649 15.3216 6.91238 14.5901C7.06921 13.8123 7.02836 13.0003 6.98511 12.1406L6.97566 11.9507C6.94236 11.2712 6.92964 10.6077 7.13632 9.9596C7.40228 9.12566 8.02029 8.49886 8.74922 8.32382C9.50139 8.14319 10.1787 8.43772 10.7764 8.69756C10.8959 8.74956 11.0089 8.79867 11.1198 8.84304C12.4467 9.37316 13.9687 9.30573 15.2912 9.20086C15.3638 9.1951 15.4365 9.18919 15.5092 9.18328C16.298 9.11902 17.1128 9.05327 17.9367 9.18307C17.9254 8.18045 17.6611 7.00342 17.314 6.02566L16.3579 7.57464C16.2487 7.75147 16.0566 7.8587 15.8503 7.8587Z" fill="white"/>
<path d="M2.43374 7.46741C2.82313 7.55874 3.2873 7.54728 3.85282 7.43243C4.32089 7.33744 4.70919 7.12463 4.94621 6.83326C5.0662 6.68581 5.16713 6.49639 5.27397 6.2959C5.41625 6.02889 5.57748 5.72626 5.82002 5.46157C6.25585 4.98594 6.83115 4.75781 7.33873 4.55654C7.50941 4.48887 7.67068 4.42495 7.82234 4.35433C9.36559 3.63608 10.247 2.24319 10.1312 0.718574C10.1268 0.661762 10.1249 0.610574 10.1248 0.563605C9.81665 0.522262 9.51824 0.499023 9.24043 0.499023C5.03273 0.499023 1.52326 3.50678 0.71875 7.50239C1.08047 7.36004 1.56528 7.26389 2.43374 7.46741Z" fill="white"/>
<path d="M17.7209 3.08475C17.723 3.08085 17.7252 3.07695 17.7274 3.07311C17.9056 2.76282 17.9997 2.40901 17.9997 2.04989C17.9997 0.919582 17.0859 0 15.9628 0C14.8396 0 13.9258 0.919582 13.9258 2.04989C13.9258 2.40771 14.0193 2.76033 14.1962 3.06977C14.2045 3.08429 14.2122 3.09913 14.2192 3.11418L15.6792 5.72678C15.7669 5.88382 15.9899 5.88871 16.0844 5.73564L17.6522 3.19539C17.6895 3.13527 17.7042 3.11172 17.7119 3.09938C17.7163 3.09248 17.7172 3.09104 17.7209 3.08475ZM15.9628 2.87459C15.5099 2.87459 15.1428 2.50513 15.1428 2.0494C15.1428 1.59367 15.5099 1.22421 15.9628 1.22421C16.4156 1.22421 16.7827 1.59367 16.7827 2.0494C16.7827 2.50513 16.4156 2.87459 15.9628 2.87459Z" fill="white"/>
<path d="M17.8145 10.3819C17.1119 10.2601 16.3802 10.3196 15.6055 10.3829C15.5319 10.3888 15.4583 10.3948 15.3848 10.4007C13.9285 10.5161 12.2436 10.5869 10.6786 9.96165C10.551 9.91067 10.4244 9.85565 10.3021 9.80242C9.834 9.59894 9.39191 9.4067 9.02642 9.49445C8.70636 9.57131 8.41112 9.89843 8.27419 10.3278C8.12864 10.7841 8.14056 11.3062 8.16924 11.892L8.17863 12.0804C8.2237 12.9767 8.27035 13.9035 8.08353 14.8299C7.89404 15.7697 7.17967 16.8458 6.35156 17.4855C7.26562 17.8144 8.24448 18.0007 9.24189 18.0007C13.661 18.0007 17.3099 14.6831 17.8641 10.3879C17.8476 10.3864 17.8311 10.3848 17.8145 10.3819Z" fill="white"/>
</g>
<defs>
<clipPath id="clip0_303_28841">
<rect width="18" height="18" fill="white"/>
</clipPath>
</defs>
</svg>
